<svg width="22" height="25" viewBox="0 0 22 25" fill="none" xmlns="http://www.w3.org/2000/svg">
<path d="M1.875 25V15.625H0V8.75C0 8.0625 0.244792 7.47396 0.734375 6.98438C1.22396 6.49479 1.8125 6.25 2.5 6.25H6.25C6.9375 6.25 7.52604 6.49479 8.01562 6.98438C8.50521 7.47396 8.75 8.0625 8.75 8.75V15.625H6.875V25H1.875ZM4.375 5C3.6875 5 3.09896 4.75521 2.60938 4.26562C2.11979 3.77604 1.875 3.1875 1.875 2.5C1.875 1.8125 2.11979 1.22396 2.60938 0.734375C3.09896 0.244792 3.6875 0 4.375 0C5.0625 0 5.65104 0.244792 6.14062 0.734375C6.63021 1.22396 6.875 1.8125 6.875 2.5C6.875 3.1875 6.63021 3.77604 6.14062 4.26562C5.65104 4.75521 5.0625 5 4.375 5ZM13.75 25V17.5H10L13.1875 7.9375C13.3542 7.39583 13.6615 6.97917 14.1094 6.6875C14.5573 6.39583 15.0625 6.25 15.625 6.25C16.1875 6.25 16.6927 6.39583 17.1406 6.6875C17.5885 6.97917 17.8958 7.39583 18.0625 7.9375L21.25 17.5H17.5V25H13.75ZM15.625 5C14.9375 5 14.349 4.75521 13.8594 4.26562C13.3698 3.77604 13.125 3.1875 13.125 2.5C13.125 1.8125 13.3698 1.22396 13.8594 0.734375C14.349 0.244792 14.9375 0 15.625 0C16.3125 0 16.901 0.244792 17.3906 0.734375C17.8802 1.22396 18.125 1.8125 18.125 2.5C18.125 3.1875 17.8802 3.77604 17.3906 4.26562C16.901 4.75521 16.3125 5 15.625 5Z" fill="#005D90"/>
</svg>
