<svg width="10" height="10" viewBox="0 0 10 10" fill="none" xmlns="http://www.w3.org/2000/svg">
<path d="M3.5 8H6.25C6.39167 8 6.52292 7.96458 6.64375 7.89375C6.76458 7.82292 6.85 7.725 6.9 7.6L7.95 5.15C7.96667 5.10833 7.97917 5.06667 7.9875 5.025C7.99583 4.98333 8 4.94167 8 4.9V4.5C8 4.35833 7.95208 4.23958 7.85625 4.14375C7.76042 4.04792 7.64167 4 7.5 4H5.2L5.5 2.3C5.51667 2.21667 5.5125 2.1375 5.4875 2.0625C5.4625 1.9875 5.42083 1.92083 5.3625 1.8625L5 1.5L2.7 4C2.63333 4.06667 2.58333 4.14167 2.55 4.225C2.51667 4.30833 2.5 4.4 2.5 4.5V7C2.5 7.275 2.59792 7.51042 2.79375 7.70625C2.98958 7.90208 3.225 8 3.5 8ZM5 10C4.30833 10 3.65833 9.86875 3.05 9.60625C2.44167 9.34375 1.9125 8.9875 1.4625 8.5375C1.0125 8.0875 0.65625 7.55833 0.39375 6.95C0.13125 6.34167 0 5.69167 0 5C0 4.30833 0.13125 3.65833 0.39375 3.05C0.65625 2.44167 1.0125 1.9125 1.4625 1.4625C1.9125 1.0125 2.44167 0.65625 3.05 0.39375C3.65833 0.13125 4.30833 0 5 0C5.69167 0 6.34167 0.13125 6.95 0.39375C7.55833 0.65625 8.0875 1.0125 8.5375 1.4625C8.9875 1.9125 9.34375 2.44167 9.60625 3.05C9.86875 3.65833 10 4.30833 10 5C10 5.69167 9.86875 6.34167 9.60625 6.95C9.34375 7.55833 8.9875 8.0875 8.5375 8.5375C8.0875 8.9875 7.55833 9.34375 6.95 9.60625C6.34167 9.86875 5.69167 10 5 10Z" fill="#B1F0CE"/>
</svg>
