<svg width="20" height="19" viewBox="0 0 20 19" fill="none" xmlns="http://www.w3.org/2000/svg">
<path d="M0 9L5 0L10 9H0ZM5 19C3.9 19 2.95833 18.6083 2.175 17.825C1.39167 17.0417 1 16.1 1 15C1 13.8833 1.39167 12.9375 2.175 12.1625C2.95833 11.3875 3.9 11 5 11C6.1 11 7.04167 11.3917 7.825 12.175C8.60833 12.9583 9 13.9 9 15C9 16.1 8.60833 17.0417 7.825 17.825C7.04167 18.6083 6.1 19 5 19ZM5 17C5.55 17 6.02083 16.8042 6.4125 16.4125C6.80417 16.0208 7 15.55 7 15C7 14.45 6.80417 13.9792 6.4125 13.5875C6.02083 13.1958 5.55 13 5 13C4.45 13 3.97917 13.1958 3.5875 13.5875C3.19583 13.9792 3 14.45 3 15C3 15.55 3.19583 16.0208 3.5875 16.4125C3.97917 16.8042 4.45 17 5 17ZM3.4 7H6.6L5 4.125L3.4 7ZM11 19V11H19V19H11ZM13 17H17V13H13V17ZM15 9C14.05 8.2 13.2542 7.525 12.6125 6.975C11.9708 6.425 11.4583 5.94167 11.075 5.525C10.6917 5.10833 10.4167 4.71667 10.25 4.35C10.0833 3.98333 10 3.59167 10 3.175C10 2.425 10.2625 1.79167 10.7875 1.275C11.3125 0.758333 11.9667 0.5 12.75 0.5C13.2 0.5 13.6208 0.604167 14.0125 0.8125C14.4042 1.02083 14.7333 1.30833 15 1.675C15.2667 1.30833 15.5958 1.02083 15.9875 0.8125C16.3792 0.604167 16.8 0.5 17.25 0.5C18.0333 0.5 18.6875 0.758333 19.2125 1.275C19.7375 1.79167 20 2.425 20 3.175C20 3.59167 19.9167 3.98333 19.75 4.35C19.5833 4.71667 19.3083 5.10833 18.925 5.525C18.5417 5.94167 18.0292 6.425 17.3875 6.975C16.7458 7.525 15.95 8.2 15 9ZM15 6.375C16.2 5.375 17 4.66667 17.4 4.25C17.8 3.83333 18 3.49167 18 3.225C18 3.00833 17.9375 2.83333 17.8125 2.7C17.6875 2.56667 17.5167 2.5 17.3 2.5C17.1333 2.5 16.9708 2.54583 16.8125 2.6375C16.6542 2.72917 16.4583 2.89167 16.225 3.125L15 4.3L13.775 3.125C13.5417 2.89167 13.3458 2.72917 13.1875 2.6375C13.0292 2.54583 12.8667 2.5 12.7 2.5C12.4833 2.5 12.3125 2.56667 12.1875 2.7C12.0625 2.83333 12 3.00833 12 3.225C12 3.49167 12.2 3.83333 12.6 4.25C13 4.66667 13.8 5.375 15 6.375Z" fill="#005D90"/>
</svg>
